<mxfile host="app.diagrams.net" modified="2024-05-27T18:21:46.196Z" agent="Mozilla/5.0 (Macintosh; Intel Mac OS X 10.15; rv:126.0) Gecko/20100101 Firefox/126.0" version="24.4.9" etag="wrSAC84J9F26I_Jtkz-b" type="github">
  <diagram name="Page-1" id="Gpunn6smA8NYTK_pHnpH">
    <mxGraphModel>
      <root>
        <mxCell id="0" />
        <mxCell id="1" parent="0" />
      </root>
    </mxGraphModel>
  </diagram>
</mxfile>
